<?xml version="1.0" encoding="UTF-8" standalone="no"?>
<!DOCTYPE svg PUBLIC "-//W3C//DTD SVG 1.1//EN" "http://www.w3.org/Graphics/SVG/1.1/DTD/svg11.dtd">
<svg width="100%" height="100%" viewBox="0 0 682 148" version="1.1" xmlns="http://www.w3.org/2000/svg" xmlns:xlink="http://www.w3.org/1999/xlink" xml:space="preserve" xmlns:serif="http://www.serif.com/" style="fill-rule:evenodd;clip-rule:evenodd;stroke-linejoin:round;stroke-miterlimit:2;">
    <g>
        <g transform="matrix(1.14017,0,0,1.30114,-12.6437,-26.0818)">
            <g transform="matrix(115.048,0,0,115.048,610.907,92.4135)">
            </g>
            <text x="41.996px" y="92.413px" style="font-family:'Copperplate-Bold', 'Copperplate';font-weight:700;font-size:115.048px;fill:white;">NEXTGEN</text>
        </g>
        <g transform="matrix(0.735091,0,0,0.69249,-132.332,43.7123)">
            <g transform="matrix(0.876291,0,0,1,25.0976,0)">
                <text x="202.876px" y="137.081px" style="font-family:'Helvetica-Bold', 'Helvetica';font-weight:700;font-size:50.068px;fill:white;">S<tspan x="242.279px 278.871px 321.037px 363.203px 402.607px 444.773px " y="137.081px 137.081px 137.081px 137.081px 137.081px 137.081px ">TUDENT</tspan></text>
            </g>
            <g transform="matrix(0.876291,0,0,1,57.3498,0)">
                <text x="463.585px" y="137.081px" style="font-family:'Helvetica-Bold', 'Helvetica';font-weight:700;font-size:50.068px;fill:white;">M<tspan x="511.301px 531.22px 573.386px 593.305px 632.708px 669.3px 709.632px " y="137.081px 137.081px 137.081px 137.081px 137.081px 137.081px 137.081px ">INISTRY</tspan></text>
            </g>
            <g transform="matrix(0.876291,0,0,1,90.3567,0)">
                <text x="730.395px" y="137.081px" style="font-family:'Helvetica-Bold', 'Helvetica';font-weight:700;font-size:50.068px;fill:white;">C<tspan x="772.561px 817.514px 859.68px 896.272px 935.676px 977.842px 1017.25px 1059.41px 1101.58px " y="137.081px 137.081px 137.081px 137.081px 137.081px 137.081px 137.081px 137.081px 137.081px ">ONFERENCE</tspan></text>
            </g>
        </g>
        <g transform="matrix(7.93151e-17,-1.29531,1.00925,6.17985e-17,60.6027,193.716)">
            <g transform="matrix(0.876291,0,0,1,9.04939,0)">
                <g transform="matrix(36.585,0,0,36.585,150.381,-34.9242)">
                </g>
                <text x="73.15px" y="-34.924px" style="font-family:'Copperplate-Bold', 'Copperplate';font-weight:700;font-size:36.585px;fill:white;">PCA</text>
            </g>
        </g>
    </g>
</svg>
